<?xml version="1.0" encoding="UTF-8"?>
<svg width="163px" height="50px" viewBox="0 0 163 50" version="1.1" xmlns="http://www.w3.org/2000/svg" xmlns:xlink="http://www.w3.org/1999/xlink">
    <!-- Generator: sketchtool 53.2 (72643) - https://sketchapp.com -->
    <title>3210F261-4C23-4790-AADA-C90688EC00DB</title>
    <desc>Created with sketchtool.</desc>
    <g id="Page-1" stroke="none" stroke-width="1" fill="none" fill-rule="evenodd">
        <g id="USER-PROFILE-1" transform="translate(-237.000000, -651.000000)" fill-rule="nonzero">
            <g id="Group-8" transform="translate(202.000000, 75.000000)">
                <g id="Group-6" transform="translate(20.000000, 443.000000)">
                    <g id="Group-Copy" transform="translate(0.000000, 118.000000)">
                        <g id="Exchange" transform="translate(15.000000, 15.000000)">
                            <path d="M26.6070658,0.468956893 C27.5859346,0.314476975 28.5574847,0.0993085185 29.5455018,0 C29.5564797,3.02155363 29.5491611,6.0449463 29.5509908,9.06649993 C36.4945552,9.07385611 43.4399493,9.06466088 50.3835137,9.07201707 C51.3129817,9.02420185 52.099736,9.91613947 52.0137419,10.8338237 C52.0155716,20.2166397 52.0082529,29.5976166 52.0174012,38.9804325 C52.0045936,39.6185817 52.1070546,40.3284537 51.7026995,40.8764896 C51.3879978,41.3877446 50.7476163,41.5348683 50.1895697,41.5183169 C43.3100434,41.5109607 36.4305171,41.5164779 29.5509908,41.5146388 C29.5509908,44.3430925 29.5509908,47.1715463 29.5509908,50 C25.5019504,49.4004708 21.4821846,48.6115198 17.4441223,47.9421068 C11.7136232,46.9379873 5.97946487,45.9614536 0.250795493,44.9426217 C-0.0529282746,44.9168751 0.0275768204,44.5269972 0.0074505467,44.321024 C0.0202581754,31.3722966 0.00562088545,18.4198911 0.0147691917,5.47116375 C-0.0602469196,5.20082389 0.162971753,5.02243637 0.402657377,5.02795351 C9.13563052,3.5015448 17.872263,1.99168751 26.6070658,0.468956893 Z" id="Path" fill="#2876BB"></path>
                            <path d="M29.2947578,11.1138545 C36.1954386,11.1101966 43.0979478,11.1101966 49.9986286,11.1138545 C50.0004571,20.7084424 50.0004571,30.3030303 49.9986286,39.8976182 C43.0961194,39.8994471 36.1954386,39.8994471 29.2929293,39.8976182 C29.2929293,39.1605578 29.2929293,38.4234974 29.2947578,37.686437 C30.1267158,37.6279111 31.1287225,37.9187116 31.8125737,37.296874 C32.6555027,36.5433532 33.3100983,35.6105968 34.0195482,34.7363664 C35.6505517,32.5965136 37.257785,30.3999638 38.3658435,27.9363897 C38.2049373,27.7791013 38.0385457,27.6309577 37.8666686,27.4883008 C37.5649695,27.4188013 37.3857786,27.6821678 37.1974452,27.8595744 C35.2391439,29.8640861 33.2808426,31.8704268 31.2969426,33.8511623 C30.8087386,34.4492237 29.9621527,34.1858572 29.2947578,34.2388963 C29.2947578,31.4296537 29.2911008,28.620411 29.2965863,25.8111683 C30.5765217,26.6689384 31.8948553,27.4791562 33.3009559,28.1174541 C33.4710044,27.8924953 33.9793217,27.5559714 33.6757941,27.2596841 C32.2312955,25.8093394 30.7630266,24.3827709 29.2965863,22.9543734 C29.2892723,20.8840201 29.2965863,18.8136668 29.2929293,16.7433134 C30.066376,16.7597738 30.8526221,16.6664982 31.6169265,16.8201287 C32.2276385,17.1566525 32.6573312,17.7400825 33.1638199,18.2101185 C33.2570724,18.2028028 33.4417488,18.1881713 33.5331727,18.1808556 C33.9006971,17.5352419 34.613804,17.0085089 34.6430597,16.227554 C33.8824123,15.3277185 32.9279461,14.6107764 32.1014735,13.7731246 C31.3847096,12.9903408 30.2236252,13.3762459 29.2947578,13.290286 C29.2929293,12.5641992 29.2929293,11.8381124 29.2947578,11.1138545 Z" id="Path" fill="#FEFEFF"></path>
                            <path d="M38.7691414,14.5770675 C39.3194728,13.956323 39.8898494,13.1310979 40.8119278,13.1420523 C42.8310246,13.1256208 44.8519436,13.1310979 46.8710403,13.1384008 C47.3320795,13.1237951 47.9279682,13.3209727 47.9498356,13.8668627 C48.0063266,16.1325801 47.9571248,18.4037746 47.9735254,20.6713177 C48.0427724,21.2756307 47.5234199,21.6626832 47.1680735,22.0661671 C46.4592029,22.7855004 45.8250461,23.5833397 45.0578623,24.2424242 C44.2505881,24.1420097 43.6929675,23.4171992 43.0096089,23.0283211 C43.3594885,22.3016849 44.1139163,21.8927238 44.4929525,21.1952991 C44.6350911,19.6799523 44.5403321,18.1426968 44.5348652,16.6182214 C43.3631331,16.5634498 42.1859341,16.5488441 41.014202,16.6090928 C40.5622742,16.5835327 40.2943976,16.9870166 39.9918976,17.2517459 C38.0839605,19.1833567 36.1760235,21.1149675 34.2790201,23.0575326 C34.0931466,23.3222618 33.7906466,23.340519 33.497258,23.3222618 C33.3733423,23.0137153 33.2239146,22.6704801 33.4517007,22.3674108 C34.8767311,19.5503262 36.7919573,17.0217053 38.7691414,14.5770675 Z" id="Path" fill="#2876BB"></path>
                            <path d="M99.4961596,15.6609967 C100.187389,15.6554437 100.878619,15.6554437 101.569848,15.6591457 C101.567985,18.356055 101.575438,21.0511133 101.566122,23.7480225 C102.294615,22.6911007 103.304444,21.7341328 104.612377,21.4842476 C105.998562,21.2695315 107.593421,21.3287635 108.688954,22.3153473 C109.788215,23.3371002 110.060235,24.9215575 110.097498,26.3523817 C110.099361,29.014122 110.106814,31.6777132 110.091908,34.3413045 C109.404405,34.3431555 108.718765,34.3431555 108.033125,34.3431555 C108.008904,31.8628134 108.031262,29.3824713 108.021946,26.9002782 C107.97723,25.8526113 107.837494,24.7012883 107.09037,23.8961027 C106.12712,22.9150718 104.470777,22.9076678 103.345433,23.6128994 C102.188415,24.3625551 101.575438,25.7452532 101.571712,27.0927824 C101.562396,29.5046374 101.579164,31.9183434 101.566122,34.3320495 C100.878619,34.3450065 100.191116,34.3450065 99.5054754,34.3413045 C99.4849807,28.1145352 99.5017491,21.887766 99.4961596,15.6609967 Z" id="Path" fill="#2876BB"></path>
                            <path d="M10.1010101,16.7288801 C12.5954314,16.5508069 15.0861297,16.3580474 17.5786895,16.1616162 C17.584274,17.2851292 17.587997,18.4086422 17.5749664,19.5303193 C16.0634216,19.5450058 14.5481537,19.5303193 13.0384704,19.627617 C13.0403319,20.9145167 13.0366089,22.2032522 13.0403319,23.4901519 C14.5537383,23.4662865 16.0652831,23.5305396 17.5768279,23.5195248 C17.5861355,24.6301872 17.5786895,25.7426853 17.584274,26.8551835 C16.0708676,26.8037809 14.5537383,26.8074526 13.0403319,26.7505426 C13.0384704,28.0484571 13.0366089,29.3445358 13.0421934,30.6406145 C14.7473351,30.7452555 16.4487538,30.8792693 18.1576186,30.9343434 C18.1967102,32.0707071 18.1762337,33.2070707 18.1780952,34.3434343 C15.486354,34.091929 12.7927513,33.8753039 10.1010101,33.6274702 C10.1028716,27.9952187 10.1010101,22.3629673 10.1010101,16.7288801 Z" id="Path" fill="#FEFEFF"></path>
                            <path d="M66.672435,34.3241851 C66.6617298,28.4394971 66.6688666,22.5529622 66.6706508,16.6682743 C69.5717582,16.6738154 72.4746498,16.657192 75.3757572,16.6756625 C75.3757572,17.2999639 75.3757572,17.9242654 75.3686204,18.5504139 C73.1437244,18.5670374 70.9188284,18.5485669 68.6939323,18.5596492 C68.6921481,20.4953532 68.6921481,22.4310572 68.6939323,24.3667612 C70.7457611,24.3741493 72.799374,24.3686082 74.8512027,24.3704553 C74.8529869,25.0076861 74.8529869,25.6449169 74.8565553,26.2821477 C72.8029424,26.2987711 70.7493295,26.2821477 68.6957165,26.2913829 C68.6885797,28.3231333 68.6939323,30.3548836 68.6921481,32.386634 C71.0419381,32.4014104 73.391728,32.3773988 75.7433022,32.3977163 C75.741518,33.0146296 75.7433022,33.6315429 75.7575758,34.2466091 C75.329368,34.3038675 74.9011603,34.3500437 74.4693842,34.3426555 C71.8715906,34.3186439 69.2720128,34.3518907 66.672435,34.3241851 Z" id="Path" fill="#2876BB"></path>
                            <path d="M89.8740277,22.9007828 C91.02064,21.7692569 92.6597194,21.1906357 94.2672066,21.220026 C95.3710764,21.1722668 96.4916715,21.3357502 97.4747475,21.8519171 C97.467314,22.538915 97.467314,23.2277497 97.4654556,23.9147476 C96.2277834,23.137742 94.6946309,22.6730081 93.2432465,23.086309 C91.5093904,23.5234895 90.3088856,25.1675084 90.0877399,26.8721449 C89.9650877,28.137764 89.9892465,29.4915539 90.6619752,30.6175692 C91.3291289,31.8262446 92.6875949,32.5793706 94.0720781,32.5775337 C95.272583,32.6638677 96.4173368,32.1881124 97.3966961,31.5452 C97.3892626,32.2028076 97.3892626,32.8604152 97.3836875,33.5198597 C95.7148742,34.3887099 93.6929713,34.5889312 91.892214,34.0305158 C90.1769415,33.5014907 88.8091836,32.092594 88.2683989,30.4081634 C87.4432841,27.8824359 87.9060174,24.8019668 89.8740277,22.9007828 Z" id="Path" fill="#2876BB"></path>
                            <path d="M113.326433,22.4133104 C114.948947,21.441165 116.921012,21.0570848 118.803353,21.2684208 C119.982854,21.4025732 121.132446,22.0696597 121.663315,23.1410412 C122.123152,24.0029244 122.218484,24.99896 122.222222,25.9582415 C122.209137,28.6633418 122.22783,31.3684421 122.211007,34.0717048 C121.532467,34.0735425 120.853927,34.0735425 120.177256,34.0735425 C120.160433,33.4046182 120.158564,32.7338562 120.173518,32.064932 C119.571617,33.0223758 118.706152,33.8750704 117.569644,34.1654277 C115.89666,34.5899373 113.81244,34.2977424 112.754441,32.8257414 C111.591764,31.0780849 112.040385,28.3013141 114.016189,27.3016031 C115.911614,26.3441593 118.124813,26.5003642 120.162302,26.0446136 C120.113702,25.1404632 119.984723,24.1242128 119.253844,23.4883673 C118.364078,22.7606365 117.100461,22.8653856 116.04807,23.117151 C115.044279,23.3450263 114.167598,23.8963375 113.335779,24.4697012 C113.330172,23.7842376 113.33391,23.098774 113.326433,22.4133104 Z" id="Path" fill="#2876BB"></path>
                            <path d="M126.862748,23.4812307 C127.561611,22.4056234 128.649146,21.5011763 129.977732,21.2867755 C131.231573,21.1318304 132.634904,21.1588557 133.671986,21.9515982 C134.935171,22.9118975 135.361215,24.5568381 135.351872,26.0450318 C135.329449,28.6232464 135.383639,31.2032626 135.325712,33.7796755 C134.645535,33.8895785 133.954147,33.822916 133.275839,33.759857 C133.296394,31.4266719 133.281445,29.0934868 133.285183,26.7621034 C133.281445,25.6991078 133.135693,24.5496313 132.403196,23.7064416 C131.612771,22.8524418 130.241207,22.719117 129.174227,23.1118848 C127.739129,23.6379775 126.834719,25.1225679 126.864617,26.5765296 C126.870223,28.9691703 126.851537,31.3618111 126.875829,33.7544519 C126.190047,33.8319245 125.498658,33.8445363 124.811008,33.8319245 C124.706365,29.7799297 124.846511,25.7261331 124.747475,21.67594 C124.777373,21.6363029 124.839037,21.5588303 124.868935,21.5209949 C125.532294,21.4777544 126.197521,21.5101848 126.862748,21.5101848 C126.862748,22.1678006 126.868354,22.8236148 126.862748,23.4812307 Z" id="Path" fill="#2876BB"></path>
                            <path d="M138.240201,24.1119525 C139.000653,22.6384777 140.445882,21.4846844 142.119986,21.2697261 C143.146227,21.1797009 144.246299,21.1337696 145.191328,21.6151292 C145.942552,21.9421598 146.499971,22.5649877 146.972485,23.2135371 C146.966948,22.6458267 146.966948,22.0781163 146.970639,21.5104059 C147.642495,21.5085687 148.314351,21.5085687 148.986207,21.5122432 C148.988053,25.4457963 148.986207,29.3811866 148.989899,33.316577 C148.95483,34.8617046 148.661354,36.4858339 147.708943,37.7498622 C146.837744,38.936726 145.401744,39.5816008 143.973127,39.7910474 C142.046155,40.0335644 140.017666,39.9012824 138.24943,39.0451237 C138.24943,38.3616666 138.245738,37.6763722 138.258659,36.992915 C139.921687,37.8968422 141.876345,38.4755761 143.766402,38.019938 C144.870166,37.8031425 145.883487,37.0976383 146.376305,36.0798016 C147.003863,34.8010753 146.970639,33.3349495 146.968793,31.9459882 C146.337544,32.8811486 145.494032,33.7189348 144.39396,34.0698496 C142.817682,34.556721 140.971924,34.4207645 139.620828,33.4213003 C138.347255,32.5026751 137.662479,30.968571 137.444679,29.4546767 C137.271178,27.652334 137.372694,25.7434309 138.240201,24.1119525 Z" id="Path" fill="#2876BB"></path>
                            <path d="M154.373451,21.7576213 C155.447852,21.1841471 156.706915,21.1455478 157.895098,21.2705358 C159.392916,21.4506655 160.752705,22.4248365 161.405552,23.7647812 C162.12928,25.1598675 162.149798,26.7626545 162.108762,28.2919191 C159.113125,28.2955953 156.119352,28.288243 153.12558,28.2955953 C153.185269,29.8156696 153.774697,31.5177117 155.278111,32.1941173 C157.218001,33.0230816 159.55333,32.5065872 161.176123,31.242003 C161.187315,31.8853234 161.18918,32.530482 161.196641,33.1756405 C159.642864,34.230686 157.674995,34.4677956 155.837695,34.2895039 C154.369721,34.1406212 152.967031,33.3612844 152.151904,32.1389755 C151.094291,30.6005206 150.900302,28.6576928 151.058851,26.8490432 C151.273358,24.7793894 152.418639,22.689517 154.373451,21.7576213 Z" id="Path" fill="#2876BB"></path>
                            <path d="M76.9342641,21.7298267 C77.679429,21.7372052 78.4263851,21.6874001 79.17155,21.7464284 C79.3506762,21.8571064 79.4259092,22.0766179 79.5423412,22.2481688 C80.4057293,23.8271756 81.2709087,25.4061823 82.1360881,26.9870337 C83.1409859,25.2272528 84.1637964,23.4785398 85.1758593,21.7242928 C85.9084853,21.7242928 86.6393201,21.7242928 87.3737374,21.7298267 C86.0105872,23.8437773 84.6581846,25.9614172 83.2824956,28.0643 C84.599073,30.1727167 86.0034222,32.2221052 87.3146257,34.3342112 C86.5479657,34.3415897 85.783097,34.3397451 85.0182282,34.3379004 C84.0151217,32.6611281 83.0335102,30.9714433 82.0447338,29.2872924 C81.0255059,30.9695987 80.0492682,32.6795744 78.9995889,34.3434343 C78.254424,34.3379004 77.5110504,34.3415897 76.7676768,34.3323665 C78.0502202,32.2792888 79.4671082,30.3165982 80.7908506,28.2930346 C80.9520641,28.1177944 80.7263652,27.9093508 80.6672535,27.7414891 C79.4223266,25.7382165 78.1630696,23.7441671 76.9342641,21.7298267 Z" id="Path" fill="#2876BB"></path>
                            <path d="M37.6695318,23.9190274 C37.8491263,23.6931379 38.0287208,23.4672483 38.1954871,23.2323232 C40.8179335,24.4195986 43.1599926,26.1110594 45.4287478,27.847698 C46.1911081,28.4765745 47.028605,29.0367805 47.6681814,29.7975764 C48.0420312,30.2204416 47.9705599,30.8131757 47.9797229,31.3336252 C47.9504013,33.2726609 48.010877,35.2153108 47.9540665,37.1543465 C47.9394057,37.7109383 47.3218205,37.9151424 46.8453453,37.8735788 C44.7012067,37.8681574 42.5552356,37.8790001 40.4129296,37.8699645 C39.7110449,37.907914 39.3042084,37.2645806 38.8313983,36.8706293 C38.1936545,36.2218746 37.409303,35.7014251 36.8686869,34.9677359 C36.9218322,34.1960973 37.6383776,33.6720336 38.004897,33.0268931 C38.0855313,33.0268931 38.2449673,33.0268931 38.3237689,33.0268931 C39.0018299,33.5256572 39.4691421,34.5141497 40.4275904,34.4635505 C41.7928752,34.4617434 43.15816,34.4816216 44.5216122,34.440058 C44.5399382,33.2816965 44.5637619,32.1215279 44.5234448,30.9649735 C44.536273,30.5131944 44.1184409,30.242127 43.8563795,29.931303 C41.7928752,27.9290183 39.7128775,25.9429975 37.6695318,23.9190274 Z" id="Path" fill="#2876BB"></path>
                            <path d="M142.153345,23.416 C143.404022,23.0035369 144.874639,23.2918961 145.812181,24.2190257 C146.589428,24.9088977 146.945433,25.9400556 146.95848,26.9493128 C146.980847,28.425785 147.055403,30.0573871 146.123453,31.3166773 C145.131858,32.7967996 142.936183,33.2512391 141.376098,32.4062371 C140.214888,31.7473911 139.573706,30.4515997 139.441369,29.177709 C139.307169,27.7468633 139.428322,26.2192895 140.188794,24.9563492 C140.617491,24.2263259 141.329501,23.6642079 142.153345,23.416 Z" id="Path" fill="#FEFEFF"></path>
                            <path d="M154.874661,24.0929359 C155.988062,23.0040041 158.001506,22.9092367 159.123871,24.0339298 C159.841037,24.7473678 160.022122,25.7951741 160.10101,26.7607294 C157.91186,26.7696697 155.72271,26.7696697 153.535354,26.7625174 C153.682373,25.7612008 154.101915,24.7724007 154.874661,24.0929359 Z" id="Path" fill="#FEFEFF"></path>
                            <path d="M116.801604,28.2244417 C117.768305,28.0932936 118.731491,27.9317343 119.696434,27.7777778 C119.694676,29.0075292 119.754436,30.3722302 119.010955,31.3967063 C118.176077,32.7309961 116.383286,33.2384824 115.072088,32.4629977 C114.001686,31.8490724 113.892712,30.178359 114.550069,29.1880955 C115.124817,28.5228513 116.010667,28.3669941 116.801604,28.2244417 Z" id="Path" fill="#FEFEFF"></path>
                        </g>
                    </g>
                </g>
            </g>
        </g>
    </g>
</svg>