<?xml version="1.0" encoding="UTF-8"?>
<svg width="40px" height="40px" viewBox="0 0 40 40" version="1.1" xmlns="http://www.w3.org/2000/svg" xmlns:xlink="http://www.w3.org/1999/xlink">
    <!-- Generator: sketchtool 53.2 (72643) - https://sketchapp.com -->
    <title>EA41F27F-A9C5-44AF-8947-7EC462DAC7F2</title>
    <desc>Created with sketchtool.</desc>
    <g id="Page-1" stroke="none" stroke-width="1" fill="none" fill-rule="evenodd">
        <g id="USER-PROFILE-1" transform="translate(-782.000000, -522.000000)">
            <g id="Group-8" transform="translate(202.000000, 75.000000)">
                <g id="Group-7" transform="translate(570.000000, 339.000000)">
                    <g id="twitter" transform="translate(10.000000, 108.000000)">
                        <rect id="Rectangle" fill="#56ACEE" fill-rule="nonzero" x="0" y="0" width="40" height="40"></rect>
                        <path d="M31.6666667,13.1033333 C30.8391667,13.4883333 29.9491667,13.7483333 29.0158333,13.865 C29.9683333,13.2666667 30.7008333,12.3183333 31.045,11.1883333 C30.1533333,11.7433333 29.165,12.1458333 28.1133333,12.3625 C27.2716667,11.4225 26.0716667,10.835 24.7441667,10.835 C22.195,10.835 20.1283333,13.0008333 20.1283333,15.6725 C20.1283333,16.0516667 20.1691667,16.4208333 20.2475,16.775 C16.4108333,16.5733333 13.01,14.6475 10.7333333,11.7208333 C10.3358333,12.435 10.1083333,13.2658333 10.1083333,14.1525 C10.1083333,15.8308333 10.9233333,17.3116667 12.1616667,18.1791667 C11.405,18.1541667 10.6933333,17.9366667 10.0708333,17.5741667 C10.0708333,17.5941667 10.0708333,17.615 10.0708333,17.635 C10.0708333,19.9791667 11.6616667,21.9341667 13.7733333,22.3791667 C13.3858333,22.4891667 12.9783333,22.5491667 12.5575,22.5491667 C12.26,22.5491667 11.9708333,22.5183333 11.6891667,22.4616667 C12.2758333,24.3833333 13.9808333,25.7825 16.0008333,25.8216667 C14.4208333,27.1191667 12.4308333,27.8925 10.2675,27.8925 C9.895,27.8925 9.5275,27.8691667 9.16666667,27.825 C11.21,29.1975 13.6358333,29.9983333 16.2425,29.9983333 C24.7333333,29.9983333 29.3766667,22.6266667 29.3766667,16.2333333 C29.3766667,16.0241667 29.3725,15.815 29.3633333,15.6075 C30.265,14.9258333 31.0475,14.0733333 31.6666667,13.1033333" id="Path" fill="#FFFFFF"></path>
                    </g>
                </g>
            </g>
        </g>
    </g>
</svg>