<?xml version="1.0" encoding="UTF-8"?>
<svg width="20px" height="20px" viewBox="0 0 20 20" version="1.1" xmlns="http://www.w3.org/2000/svg" xmlns:xlink="http://www.w3.org/1999/xlink">
    <!-- Generator: sketchtool 53.2 (72643) - https://sketchapp.com -->
    <title>7E8F8548-E19A-43AF-BEEE-4F08A2D2748C</title>
    <desc>Created with sketchtool.</desc>
    <g id="Page-1" stroke="none" stroke-width="1" fill="none" fill-rule="evenodd">
        <g id="FEED-1" transform="translate(-1152.000000, -377.000000)" fill="#7D7D7D" fill-rule="nonzero">
            <g id="Group-2" transform="translate(1128.000000, 355.000000)">
                <g id="icons8-facebook" transform="translate(24.000000, 22.000000)">
                    <path d="M17.7777778,0 L2.22222222,0 C0.994444444,0 0,0.994444444 0,2.22222222 L0,17.7777778 C0,19.0055556 0.994444444,20 2.22222222,20 L10.69,20 L10.69,12.2655556 L8.08666667,12.2655556 L8.08666667,9.23777778 L10.69,9.23777778 L10.69,7.01 C10.69,4.42777778 12.2688889,3.02 14.5733333,3.02 C15.35,3.01777778 16.1255556,3.05777778 16.8977778,3.13666667 L16.8977778,5.83666667 L15.3111111,5.83666667 C14.0555556,5.83666667 13.8111111,6.43 13.8111111,7.30555556 L13.8111111,9.23333333 L16.8111111,9.23333333 L16.4211111,12.2611111 L13.7933333,12.2611111 L13.7933333,20 L17.7777778,20 C19.0055556,20 20,19.0055556 20,17.7777778 L20,2.22222222 C20,0.994444444 19.0055556,0 17.7777778,0 Z" id="Path"></path>
                </g>
            </g>
        </g>
    </g>
</svg>