<?xml version="1.0" encoding="UTF-8"?>
<svg width="40px" height="40px" viewBox="0 0 40 40" version="1.1" xmlns="http://www.w3.org/2000/svg" xmlns:xlink="http://www.w3.org/1999/xlink">
    <!-- Generator: sketchtool 53.2 (72643) - https://sketchapp.com -->
    <title>9E22F260-B00C-4931-9321-230140C2BAD9</title>
    <desc>Created with sketchtool.</desc>
    <g id="Page-1" stroke="none" stroke-width="1" fill="none" fill-rule="evenodd">
        <g id="USER-PROFILE-1" transform="translate(-782.000000, -450.000000)">
            <g id="Group-8" transform="translate(202.000000, 75.000000)">
                <g id="Group-7" transform="translate(570.000000, 339.000000)">
                    <g id="facebook" transform="translate(10.000000, 36.000000)">
                        <rect id="Rectangle" fill="#4463B1" fill-rule="nonzero" x="0" y="0" width="40" height="40"></rect>
                        <path d="M18.3116667,30 L18.3116667,20.835 L14.9975,20.835 L14.9975,17.5233333 L18.3125,17.5233333 L18.3125,14.975 C18.3125,11.8566667 20.6633333,10.0066667 23.435,10.0066667 C24.7625,10.0066667 25.4608333,10.15 25.7941667,10.1941667 L25.7941667,13.35 L23.4433333,13.3491667 C21.9358333,13.3491667 21.6541667,14.0991667 21.6541667,15.1541667 L21.6541667,17.5233333 L25.8391667,17.5233333 L25.2933333,20.835 L21.6541667,20.835 L21.6541667,30 L18.3116667,30 Z" id="Path" fill="#FFFFFF"></path>
                    </g>
                </g>
            </g>
        </g>
    </g>
</svg>