<?xml version="1.0" encoding="UTF-8"?>
<svg width="40px" height="40px" viewBox="0 0 40 40" version="1.1" xmlns="http://www.w3.org/2000/svg" xmlns:xlink="http://www.w3.org/1999/xlink">
    <!-- Generator: sketchtool 53.2 (72643) - https://sketchapp.com -->
    <title>1066D560-43F5-4C1B-829F-8264587ED9BB</title>
    <desc>Created with sketchtool.</desc>
    <g id="Page-1" stroke="none" stroke-width="1" fill="none" fill-rule="evenodd">
        <g id="USER-PROFILE-1" transform="translate(-782.000000, -666.000000)">
            <g id="Group-8" transform="translate(202.000000, 75.000000)">
                <g id="Group-7" transform="translate(570.000000, 339.000000)">
                    <g id="instagram" transform="translate(10.000000, 252.000000)">
                        <rect id="Rectangle" fill="#E02E7D" fill-rule="nonzero" x="0" y="0" width="40" height="40"></rect>
                        <path d="M28.8066667,30.0041667 L11.1891667,30.0041667 C10.53,30.0041667 9.995,29.47 9.995,28.81 L9.995,11.1933333 C9.995,10.5333333 10.53,9.99916667 11.1891667,9.99916667 L28.8066667,9.99916667 C29.4658333,9.99916667 30,10.5333333 30,11.1933333 L30,28.81 C30,29.47 29.4658333,30.0041667 28.8066667,30.0041667 Z M20,16.6666667 C18.1591667,16.6666667 16.6666667,18.1591667 16.6666667,20 C16.6666667,21.8408333 18.1591667,23.3333333 20,23.3333333 C21.8408333,23.3333333 23.3333333,21.8408333 23.3333333,20 C23.3333333,18.1591667 21.8408333,16.6666667 20,16.6666667 Z M20,25.8333333 C16.7783333,25.8333333 14.1666667,23.2216667 14.1666667,20 C14.1666667,19.1016667 14.3866667,18.26 14.75,17.5 L12.5,17.5 L12.5,27.5 L27.5,27.5 L27.5,17.5 L25.2508333,17.5 C25.6133333,18.26 25.8333333,19.1016667 25.8333333,20 C25.8333333,23.2216667 23.2216667,25.8333333 20,25.8333333 Z M28.3333333,13.3333333 C28.3333333,12.4125 27.5875,11.6666667 26.6666667,11.6666667 L25.8333333,11.6666667 C24.9125,11.6666667 24.1666667,12.4125 24.1666667,13.3333333 L24.1666667,14.1666667 C24.1666667,15.0875 24.9125,15.8333333 25.8333333,15.8333333 L26.6666667,15.8333333 C27.5875,15.8333333 28.3333333,15.0875 28.3333333,14.1666667 L28.3333333,13.3333333 Z" id="Shape" fill="#FFFFFF"></path>
                    </g>
                </g>
            </g>
        </g>
    </g>
</svg>