<?xml version="1.0" encoding="UTF-8"?>
<svg width="20px" height="20px" viewBox="0 0 20 20" version="1.1" xmlns="http://www.w3.org/2000/svg" xmlns:xlink="http://www.w3.org/1999/xlink">
    <!-- Generator: sketchtool 53.2 (72643) - https://sketchapp.com -->
    <title>772AB9D9-3E53-472E-ABEF-6DEB87A2D85F</title>
    <desc>Created with sketchtool.</desc>
    <g id="Page-1" stroke="none" stroke-width="1" fill="none" fill-rule="evenodd">
        <g id="FEED-1" transform="translate(-1152.000000, -475.000000)" fill="#7D7D7D" fill-rule="nonzero">
            <g id="Group-2" transform="translate(1128.000000, 355.000000)">
                <g id="icons8-linkedin" transform="translate(24.000000, 120.000000)">
                    <path d="M17.7777778,0 L2.22222222,0 C0.994444444,0 0,0.994444444 0,2.22222222 L0,17.7777778 C0,19.0055556 0.994444444,20 2.22222222,20 L17.7777778,20 C19.0055556,20 20,19.0055556 20,17.7777778 L20,2.22222222 C20,0.994444444 19.0055556,0 17.7777778,0 Z M6.66666667,15.5555556 L3.86333333,15.5555556 L3.86333333,7.77777778 L6.66666667,7.77777778 L6.66666667,15.5555556 Z M5.21555556,6.35222222 C4.35888889,6.35222222 3.78666667,5.78111111 3.78666667,5.01888889 C3.78666667,4.25666667 4.35777778,3.68555556 5.31,3.68555556 C6.16666667,3.68555556 6.73888889,4.25666667 6.73888889,5.01888889 C6.73888889,5.78111111 6.16777778,6.35222222 5.21555556,6.35222222 Z M16.6666667,15.5555556 L13.9533333,15.5555556 L13.9533333,11.3044444 C13.9533333,10.1288889 13.23,9.85777778 12.9588889,9.85777778 C12.6877778,9.85777778 11.7833333,10.0388889 11.7833333,11.3044444 C11.7833333,11.4855556 11.7833333,15.5555556 11.7833333,15.5555556 L8.98,15.5555556 L8.98,7.77777778 L11.7833333,7.77777778 L11.7833333,8.86333333 C12.1444444,8.23 12.8677778,7.77777778 14.2244444,7.77777778 C15.5811111,7.77777778 16.6666667,8.86333333 16.6666667,11.3044444 L16.6666667,15.5555556 Z" id="Shape"></path>
                </g>
            </g>
        </g>
    </g>
</svg>