<?xml version="1.0" encoding="UTF-8"?>
<svg width="40px" height="40px" viewBox="0 0 40 40" version="1.1" xmlns="http://www.w3.org/2000/svg" xmlns:xlink="http://www.w3.org/1999/xlink">
    <!-- Generator: sketchtool 53.2 (72643) - https://sketchapp.com -->
    <title>9847B377-386A-4B3B-828E-457A88FFD618</title>
    <desc>Created with sketchtool.</desc>
    <g id="Page-1" stroke="none" stroke-width="1" fill="none" fill-rule="evenodd">
        <g id="USER-PROFILE-1" transform="translate(-782.000000, -594.000000)">
            <g id="Group-8" transform="translate(202.000000, 75.000000)">
                <g id="Group-7" transform="translate(570.000000, 339.000000)">
                    <g id="linkedin" transform="translate(10.000000, 180.000000)">
                        <rect id="Rectangle" fill="#007BB6" fill-rule="nonzero" x="0" y="0" width="40" height="40"></rect>
                        <path d="M26.2866667,30.7166667 L26.2866667,23.7541667 C26.2866667,22.0941667 26.2583333,19.9583333 23.975,19.9583333 C21.66,19.9583333 21.3066667,21.7683333 21.3066667,23.6358333 L21.3066667,30.7166667 L16.8625,30.7166667 L16.8625,16.4 L21.1275,16.4 L21.1275,18.3575 L21.1883333,18.3575 C21.7816667,17.2316667 23.2333333,16.045 25.3983333,16.045 C29.9033333,16.045 30.7358333,19.0091667 30.7358333,22.865 L30.7358333,30.7166667 L26.2866667,30.7166667 Z M11.845,14.4441667 C10.4158333,14.4441667 9.26416667,13.2883333 9.26416667,11.8633333 C9.26416667,10.4391667 10.4158333,9.28333333 11.845,9.28333333 C13.2683333,9.28333333 14.4241667,10.4391667 14.4241667,11.8633333 C14.4241667,13.2883333 13.2683333,14.4441667 11.845,14.4441667 Z M14.0708333,30.7166667 L9.6175,30.7166667 L9.6175,16.4 L14.0708333,16.4 L14.0708333,30.7166667 Z" id="Shape" fill="#FFFFFF"></path>
                    </g>
                </g>
            </g>
        </g>
    </g>
</svg>