<?xml version="1.0" encoding="UTF-8"?>
<svg width="20px" height="20px" viewBox="0 0 20 20" version="1.1" xmlns="http://www.w3.org/2000/svg" xmlns:xlink="http://www.w3.org/1999/xlink">
    <!-- Generator: sketchtool 53.2 (72643) - https://sketchapp.com -->
    <title>DD86F233-18AB-414D-8115-003E1C1BA690</title>
    <desc>Created with sketchtool.</desc>
    <g id="Page-1" stroke="none" stroke-width="1" fill="none" fill-rule="evenodd">
        <g id="FEED-1" transform="translate(-1152.000000, -426.000000)" fill="#7D7D7D" fill-rule="nonzero">
            <g id="Group-2" transform="translate(1128.000000, 355.000000)">
                <g id="icons8-twitter" transform="translate(24.000000, 71.000000)">
                    <path d="M17.7777778,0 L2.22222222,0 C0.994444444,0 0,0.994444444 0,2.22222222 L0,17.7777778 C0,19.0055556 0.994444444,20 2.22222222,20 L17.7777778,20 C19.0055556,20 20,19.0055556 20,17.7777778 L20,2.22222222 C20,0.994444444 19.0055556,0 17.7777778,0 Z M15.6111111,7.23777778 C15.6111111,7.33333333 15.6111111,7.42777778 15.6111111,7.61888889 C15.6111111,11.2377778 12.8488889,15.4288889 7.80111111,15.4288889 C6.27777778,15.4288889 4.84888889,14.9522222 3.61111111,14.1911111 C3.80111111,14.1911111 4.08777778,14.1911111 4.27777778,14.1911111 C5.51555556,14.1911111 6.75444444,13.7144444 7.70666667,13.0477778 C6.46888889,13.0477778 5.51666667,12.1911111 5.13555556,11.1433333 C5.32555556,11.1433333 5.51666667,11.2388889 5.61222222,11.2388889 C5.89777778,11.2388889 6.08888889,11.2388889 6.37444444,11.1433333 C5.13666667,10.8577778 4.18444444,9.81 4.18444444,8.47666667 C4.56555556,8.66666667 4.94666667,8.76222222 5.42222222,8.85777778 C4.66,8.19111111 4.18444444,7.42888889 4.18444444,6.47666667 C4.18444444,6 4.28,5.52444444 4.56555556,5.14333333 C5.89888889,6.76222222 7.89888889,7.90555556 10.1844444,8 C10.1844444,7.81 10.0888889,7.61888889 10.0888889,7.33333333 C10.0888889,5.81 11.3266667,4.57111111 12.8511111,4.57111111 C13.6133333,4.57111111 14.3744444,4.85666667 14.8511111,5.42777778 C15.5177778,5.33222222 16.0888889,5.04666667 16.5655556,4.76111111 C16.3755556,5.42777778 15.8988889,5.90444444 15.3277778,6.28444444 C15.8988889,6.18888889 16.3755556,6.09444444 16.9466667,5.80777778 C16.5633333,6.38111111 16.0877778,6.85666667 15.6111111,7.23777778 Z" id="Shape"></path>
                </g>
            </g>
        </g>
    </g>
</svg>